<svg viewBox="0 0 320 320" xmlns="http://www.w3.org/2000/svg">
  <path d="M297.6 127.238c29.9 50.1 29.9 112.1 0 162.1-29.9 50.1-83.9 78.9-142.6 78.9v-78.9c29.5 0 56.8-14.4 78.9-39.5 22.1-25 34.4-57.4 34.4-90.5 0-33.1-12.2-65.5-34.4-90.5-22.1-25-49.4-39.5-78.9-39.5V50.238c58.7 0 112.7 28.8 142.6 78.9z" fill="#000"/>
  <path d="M217.6 189.338c12 20.1 12 47.9 0 68-12 20.1-33.6 31.6-57.1 31.6v-31.6c11.8 0 22.8-5.8 31.6-15.8 8.8-10 13.8-23 13.8-36.2s-4.9-26.2-13.8-36.2c-8.8-10-19.7-15.8-31.6-15.8v-31.6c23.5 0 45.1 11.5 57.1 31.6z" fill="#000"/>
  <path d="M22.4 127.238c-29.9 50.1-29.9 112.1 0 162.1 29.9 50.1 83.9 78.9 142.6 78.9v-78.9c-29.5 0-56.8-14.4-78.9-39.5-22.1-25-34.4-57.4-34.4-90.5 0-33.1 12.2-65.5 34.4-90.5 22.1-25 49.4-39.5 78.9-39.5V50.238c-58.7 0-112.7 28.8-142.6 78.9z" fill="#000"/>
  <path d="M102.4 189.338c-12 20.1-12 47.9 0 68 12 20.1 33.6 31.6 57.1 31.6v-31.6c-11.8 0-22.8-5.8-31.6-15.8-8.8-10-13.8-23-13.8-36.2s4.9-26.2 13.8-36.2c8.8-10 19.7-15.8 31.6-15.8v-31.6c-23.5 0-45.1 11.5-57.1 31.6z" fill="#000"/>
  <circle cx="160" cy="160" r="28" fill="#000"/>
</svg>
